<svg width="20" height="14" fill="none" xmlns="http://www.w3.org/2000/svg"><path d="M20 .013H0v13.334h20V.013z" fill="#F0F0F0"/><path d="M11.25.013h-2.5V5.43H0v2.5h8.75v5.416h2.5V7.93H20v-2.5h-8.75V.013z" fill="#D80027"/><path d="M15.382 8.998L20 11.564V8.998h-4.618zm-3.208 0L20 13.346v-1.23l-5.613-3.118h-2.213zm5.741 4.348l-5.741-3.19v3.19h5.741z" fill="#0052B4"/><path d="M12.174 8.998L20 13.346v-1.23l-5.613-3.118h-2.213z" fill="#F0F0F0"/><path d="M12.174 8.998L20 13.346v-1.23l-5.613-3.118h-2.213z" fill="#D80027"/><path d="M3.529 8.998L0 10.958v-1.96h3.529zm4.297.553v3.795H.996l6.83-3.795z" fill="#0052B4"/><path d="M5.613 8.998L0 12.117v1.23l7.826-4.349H5.613z" fill="#D80027"/><path d="M4.618 4.36L0 1.796v2.566h4.618zm3.208 0L0 .014v1.23L5.613 4.36h2.213zM2.085.013l5.741 3.19V.013H2.085z" fill="#0052B4"/><path d="M7.826 4.36L0 .014v1.23L5.613 4.36h2.213z" fill="#F0F0F0"/><path d="M7.826 4.36L0 .014v1.23L5.613 4.36h2.213z" fill="#D80027"/><path d="M16.471 4.36L20 2.4v1.96h-3.529zm-4.297-.552V.013h6.83l-6.83 3.795z" fill="#0052B4"/><path d="M14.387 4.36L20 1.243V.012l-7.826 4.349h2.213z" fill="#D80027"/></svg>