<svg class="svg-icon" width="16" height="16" fill="none" xmlns="http://www.w3.org/2000/svg"><g clip-path="url(#clip0)"><path d="M15.953 4.695c-.037-.849-.175-1.432-.371-1.937a3.897 3.897 0 0 0-.924-1.417 3.93 3.93 0 0 0-1.413-.92C12.737.225 12.157.087 11.308.05 10.453.01 10.182 0 8.014 0s-2.44.01-3.291.047C3.874.084 3.29.222 2.786.418a3.896 3.896 0 0 0-1.417.923c-.405.4-.72.883-.92 1.414-.196.508-.334 1.088-.371 1.937-.04.855-.05 1.126-.05 3.294s.01 2.44.047 3.291c.037.849.175 1.432.371 1.937a3.94 3.94 0 0 0 .923 1.416c.4.406.883.721 1.414.92.508.197 1.088.334 1.937.372.851.037 1.123.047 3.29.047 2.169 0 2.44-.01 3.292-.047.848-.038 1.432-.175 1.937-.371a4.085 4.085 0 0 0 2.337-2.337c.196-.508.333-1.088.37-1.937.038-.852.048-1.123.048-3.291s-.003-2.44-.04-3.291zm-1.438 6.52c-.034.78-.165 1.2-.274 1.481a2.649 2.649 0 0 1-1.517 1.517c-.28.109-.704.24-1.481.274-.843.037-1.095.047-3.226.047-2.13 0-2.386-.01-3.225-.047-.78-.034-1.201-.165-1.482-.274a2.456 2.456 0 0 1-.917-.596 2.483 2.483 0 0 1-.596-.917c-.11-.281-.24-.705-.275-1.482-.037-.842-.046-1.095-.046-3.226 0-2.13.009-2.386.046-3.225.035-.78.166-1.201.275-1.482.128-.346.33-.661.599-.917a2.48 2.48 0 0 1 .917-.596c.28-.11.705-.24 1.482-.275.842-.037 1.095-.046 3.225-.046 2.134 0 2.387.009 3.226.046.78.035 1.2.166 1.482.275.346.128.66.33.917.596.265.259.468.57.596.917.109.28.24.705.274 1.482.037.842.047 1.095.047 3.225s-.01 2.38-.047 3.223z"/><path d="M8.014 3.884a4.103 4.103 0 0 0 0 8.204 4.103 4.103 0 0 0 0-8.204zm0 6.763a2.661 2.661 0 1 1 0-5.323 2.661 2.661 0 0 1 0 5.323zm5.222-6.925a.958.958 0 1 1-1.915 0 .958.958 0 0 1 1.915 0z"/></g><defs><clipPath id="clip0"><path d="M0 0h16v15.969H0z"/></clipPath></defs></svg>