<svg width="126" height="42" fill="none" xmlns="http://www.w3.org/2000/svg"><g clip-path="url(#clip0)" fill="#FFDA00"><path d="M22.919 28.866l6.36-15.515h-1.623L15.485 41.987H0l16.72-36.32A9.66 9.66 0 0 1 25.495.015h14.492l-3.462 8.102h1.396L41.41 0h15.377v41.986H44.456V13.337h-1.584l-5.703 15.57-14.25-.041zM57.727.014h26.85l-5.81 13.364h-7.622v1.163h8.373L85.986.014h14.25L85.234 35.156c-1.77 4.139-5.81 6.817-10.278 6.817-1.168 0-2.402 0-3.636.014-5.556.04-13.593 0-13.593 0v-13.08H73.44l.456-1.286h-5.918c-5.662 0-10.251-4.626-10.251-10.334V.014zM126 0v19.708l-9.044.04-10.493.041 1.167-5.22 9.312-.055v-1.055h-9.057l-1.422 6.317-2.443 9.09h12.936v-1.231l-12.614.013 1.597-5.938 11.5-.04 8.561.027v20.29H83.41l14.933-35.36C100.05 2.611 103.953 0 108.287 0H126z"/></g><defs><clipPath id="clip0"><path fill="#fff" d="M0 0h126v42H0z"/></clipPath></defs></svg>