<svg width="16" height="12" fill="none" xmlns="http://www.w3.org/2000/svg"><g clip-path="url(#clip0)" fill="#A6A6A6"><path d="M15.86.804l-4.853 4.821 4.852 4.821A1.39 1.39 0 0 0 16 9.844V1.406c0-.216-.053-.419-.14-.602zM14.594 0H1.406C1.19 0 .987.053.804.14l6.202 6.172c.548.548 1.44.548 1.988 0L15.196.14a1.39 1.39 0 0 0-.602-.14zM.14.804a1.39 1.39 0 0 0-.14.602v8.438c0 .216.053.419.14.602l4.853-4.82L.141.803z"/><path d="M10.344 6.288l-.687.687c-.914.913-2.4.913-3.314 0l-.687-.687-4.852 4.821c.183.088.386.141.602.141h13.188c.216 0 .419-.053.602-.14l-4.852-4.822z"/></g><defs><clipPath id="clip0"><path fill="#fff" d="M0 0h16v11.25H0z"/></clipPath></defs></svg>